<svg id="Layer_1" data-name="Layer 1" xmlns="http://www.w3.org/2000/svg" viewBox="0 0 74.99 75.02"><defs><style>.cls-1{fill:#020202;}.cls-2{fill:#47ada6;}.cls-3{fill:#e9d362;}.cls-4{fill:#f37860;}.cls-5{fill:#bd2b66;}</style></defs><title>dealbot-totem</title><path class="cls-1" d="M73.5,28.71a6.32,6.32,0,0,0-4.86-2.28H39.58V18.16a9.2,9.2,0,1,0-4.16,0v8.27H6.34A6.36,6.36,0,0,0,.1,33.89L6.42,69.78A6.32,6.32,0,0,0,12.66,75H62.33a6.32,6.32,0,0,0,6.24-5.24l6.32-35.89A6.27,6.27,0,0,0,73.5,28.71Z"/><circle class="cls-2" cx="37.49" cy="9.22" r="5.04"/><path class="cls-3" d="M70.79,33.17L64.47,69a2.17,2.17,0,0,1-2.14,1.8H12.66A2.16,2.16,0,0,1,10.52,69L4.2,33.17a2.12,2.12,0,0,1,2.14-2.56H68.65A2,2,0,0,1,70.79,33.17Z"/><path class="cls-1" d="M48.11,60A31,31,0,0,1,37.5,61.76,31.05,31.05,0,0,1,26.88,60a2.08,2.08,0,1,0-1.47,3.9h0a34.71,34.71,0,0,0,12.09,2,34.71,34.71,0,0,0,12.09-2,2.08,2.08,0,0,0,1.21-2.68h0A2.11,2.11,0,0,0,48.11,60Z"/><path class="cls-1" d="M29.58,43.56a9.2,9.2,0,1,0-9.2,9.2h0A9.21,9.21,0,0,0,29.58,43.56Z"/><path class="cls-1" d="M54.34,34.36a9.2,9.2,0,1,0,9.2,9.2A9.2,9.2,0,0,0,54.34,34.36Z"/><circle class="cls-4" cx="20.38" cy="43.56" r="5.04"/><circle class="cls-5" cx="54.34" cy="43.56" r="5.04"/></svg>