<svg id="Layer_1" data-name="Layer 1" xmlns="http://www.w3.org/2000/svg" viewBox="0 0 303.44 75"><defs><style>.cls-1{fill:#231f20;}.cls-2{fill:#010101;}.cls-3{fill:#48ada6;}.cls-4{fill:#e9d362;}.cls-5{fill:#f3785f;}.cls-6{fill:#bc2a66;}</style></defs><title>dealbot</title><path class="cls-1" d="M114,32.17c10.08,0,18.88,7.21,18.88,20.52S124.11,73.21,114,73.21H102.77v-41H114Zm-6.1,4.92V68.29h5.22c7.56,0,14.25-4.1,14.25-15.59S120.71,37.1,113.15,37.1h-5.22Z" transform="translate(0)"/><path class="cls-1" d="M166.44,59.49H144.74c0.29,5.45,3,9.73,8.33,9.73,4.34,0,6.57-2,8.21-5.63l4.34,1.88c-2.76,5.75-6.45,8.21-12.55,8.21-9,0-13.37-7.33-13.37-15.24s4.4-15.24,13.37-15.24c8.73,0,13.37,6.68,13.37,14v2.29ZM145,55h16.24c-0.88-4.22-3.46-7.39-8.21-7.39C148.5,47.65,145.92,50.76,145,55Z" transform="translate(0)"/><path class="cls-1" d="M196.1,73.21h-3.87L191.41,69a10.71,10.71,0,0,1-9.26,4.63c-4.92,0-9.15-2.64-9.15-9S178.28,55,186.37,55h4.81V53.75c0-4.57-2.87-6.1-6.45-6.1a5.93,5.93,0,0,0-6.16,4.63l-4.34-1c0.82-5,4.92-8.09,10.49-8.09,6.51,0,11.37,3.28,11.37,11.14V73.21Zm-13.19-4c3.81,0,8.27-2.35,8.27-9v-0.7H185.9c-5,0-7.86,1.88-7.86,5.22C178,67.52,179.8,69.22,182.91,69.22Z" transform="translate(0)"/><path class="cls-1" d="M209.93,31.7V73.21H205V31.7h4.92Z" transform="translate(0)"/><path class="cls-1" d="M232.91,73.68c-3.58,0-7.21-1.93-8.62-4.1v3.63h-4.92V31.7h4.92V47.18c1-1.7,4.87-4,8.62-4,8.68,0,13.13,6.39,13.13,15.24S241.59,73.68,232.91,73.68Zm-0.47-26c-5.39,0-8.56,4.46-8.56,10.79s3.17,10.79,8.56,10.79c5.22,0,8.56-4.46,8.56-10.79S237.66,47.65,232.45,47.65Z" transform="translate(0)"/><path class="cls-1" d="M266.45,43.19c8.85,0,14.19,7.21,14.19,15.24s-5.33,15.24-14.19,15.24-14.19-7.21-14.19-15.24S257.59,43.19,266.45,43.19Zm0,26c6,0,9.15-5.33,9.15-10.79s-3.11-10.79-9.15-10.79S257.3,53,257.3,58.44,260.41,69.22,266.45,69.22Z" transform="translate(0)"/><path class="cls-1" d="M285,43.66h5.1V34.81L295,31.7v12h7.74v4.46H295V64.36c0,3.17,1.47,4.87,3.93,4.87a5.56,5.56,0,0,0,3.34-.94l1.17,4.28a9.54,9.54,0,0,1-4.81,1.11c-5,0-8.56-3-8.56-9.73V48.12H285V43.66Z" transform="translate(0)"/><path class="cls-2" d="M73.5,28.69a6.32,6.32,0,0,0-4.86-2.28H39.58V18.14a9.2,9.2,0,1,0-4.16,0v8.27H6.34A6.36,6.36,0,0,0,.1,33.87L6.42,69.76A6.32,6.32,0,0,0,12.66,75H62.33a6.32,6.32,0,0,0,6.24-5.24l6.32-35.89A6.27,6.27,0,0,0,73.5,28.69Z" transform="translate(0)"/><circle class="cls-3" cx="37.49" cy="9.2" r="5.04"/><path class="cls-4" d="M70.79,33.15L64.47,69a2.17,2.17,0,0,1-2.14,1.8H12.66A2.16,2.16,0,0,1,10.52,69L4.2,33.15a2.12,2.12,0,0,1,2.14-2.56H68.65A2,2,0,0,1,70.79,33.15Z" transform="translate(0)"/><path class="cls-2" d="M48.11,60a31,31,0,0,1-10.61,1.74A31.05,31.05,0,0,1,26.88,60a2.08,2.08,0,0,0-1.47,3.9,34.71,34.71,0,0,0,12.09,2,34.71,34.71,0,0,0,12.09-2,2.08,2.08,0,0,0,1.21-2.69A2.11,2.11,0,0,0,48.11,60Z" transform="translate(0)"/><path class="cls-2" d="M29.58,43.54a9.2,9.2,0,1,0-9.2,9.2A9.21,9.21,0,0,0,29.58,43.54Z" transform="translate(0)"/><path class="cls-2" d="M54.34,34.34a9.2,9.2,0,1,0,9.2,9.2A9.21,9.21,0,0,0,54.34,34.34Z" transform="translate(0)"/><circle class="cls-5" cx="20.38" cy="43.54" r="5.04"/><circle class="cls-6" cx="54.34" cy="43.54" r="5.04"/></svg>